<?xml version="1.0" encoding="UTF-8"?>
<svg width="32px" height="32px" viewBox="0 0 32 32" version="1.1" xmlns="http://www.w3.org/2000/svg">
  <g stroke="none" stroke-width="1" fill="none" fill-rule="evenodd">
    <path d="M16,32 C24.8365823,32 32,24.8365823 32,16 C32,7.16341772 24.8365823,0 16,0 C7.16341772,0 0,7.16341772 0,16 C0,24.8365823 7.16341772,32 16,32 Z" fill="#3B82F6"/>
    <path d="M23,11 L20.83,11 L19.59,9.65 C19.22,9.24 18.66,9 18.12,9 L13.88,9 C13.34,9 12.78,9.24 12.4,9.65 L11.17,11 L9,11 C7.89,11 7,11.9 7,13 L7,21 C7,22.1 7.89,23 9,23 L23,23 C24.1,23 25,22.1 25,21 L25,13 C25,11.9 24.1,11 23,11 Z M16,20 C13.79,20 12,18.21 12,16 C12,13.79 13.79,12 16,12 C18.21,12 20,13.79 20,16 C20,18.21 18.21,20 16,20 Z" fill="#FFFFFF" fill-rule="nonzero"/>
    <circle fill="#FFFFFF" cx="16" cy="16" r="2"/>
  </g>
</svg>